# xmcd CD database file
#
# Track frame offsets:
#	150
#	18863
#	48341
#
# Disc length: 933 seconds
#
# Revision: 0
# Processed by: cddbd v1.5.1PL0 Copyright (c) Steve Scherf et al.
# Submitted via: CDex 1.40Beta9
#
DISCID=1803a303
DTITLE=ザ・ベイビースターズ - SUNDAY
DYEAR=2004
DGENRE=J-Pop
TTITLE0=SUNDAY
TTITLE1=My Stride
TTITLE2=CCCD
EXTD=YEAR: 2004/11/10
EXTT0=
EXTT1=
EXTT2=
PLAYORDER=
